<svg xmlns="http://www.w3.org/2000/svg"  viewBox="0 0 24 24" width="24px" height="24px"><path d="M12 1.5C6.2 1.5 1.5 6.2 1.5 12V17C1.5 20 4 22.5 7 22.5H7.5V20.9C8.4 20.7 9 19.9 9 19V15C9 14.1 8.4 13.3 7.5 13.1V11.5H7C5.1 11.5 3.5 12.4 2.5 13.8V12C2.5 6.8 6.8 2.5 12 2.5C17.2 2.5 21.5 6.8 21.5 12V13.8C20.5 12.4 18.9 11.5 17 11.5H16.5V13.1C15.6 13.3 15 14.1 15 15V19C15 19.9 15.6 20.7 16.5 20.9V22.5H17C20 22.5 22.5 20 22.5 17V12C22.5 6.2 17.8 1.5 12 1.5ZM6.5 12.5V21.5C4.3 21.3 2.5 19.3 2.5 17C2.5 14.7 4.3 12.8 6.5 12.5ZM17.5 21.5V12.5C19.7 12.7 21.5 14.7 21.5 17C21.5 19.3 19.7 21.2 17.5 21.5Z" fill="white"></path></svg>